<?xml version="1.0" encoding="UTF-8" standalone="no"?>
<!DOCTYPE svg PUBLIC "-//W3C//DTD SVG 1.1//EN" "http://www.w3.org/Graphics/SVG/1.1/DTD/svg11.dtd">
<svg width="100%" height="100%" viewBox="0 0 498 95" version="1.1" xmlns="http://www.w3.org/2000/svg" xmlns:xlink="http://www.w3.org/1999/xlink" xml:space="preserve" xmlns:serif="http://www.serif.com/" style="fill-rule:evenodd;clip-rule:evenodd;stroke-linejoin:round;stroke-miterlimit:2;">
    <g>
        <path d="M67.571,65.832C67.571,70.372 63.891,74.052 59.351,74.052C55.201,74.052 51.035,74.052 51.035,74.052L51.035,26.604C51.035,26.604 44.59,43.215 41.168,52.036C39.914,55.267 36.805,57.395 33.34,57.395C33.258,57.395 33.177,57.395 33.095,57.395C29.793,57.395 26.83,55.367 25.635,52.288C22.24,43.536 15.67,26.604 15.67,26.604L15.67,74.052L7.553,74.052C5.55,74.052 3.629,73.257 2.212,71.84C0.796,70.424 -0,68.503 -0,66.499C0,52.929 0,24.563 0,10.887C-0,6.635 3.447,3.189 7.698,3.189L19.306,3.189L33.807,38.739L48.265,3.189L57.972,3.189C60.518,3.189 62.96,4.2 64.76,6C66.56,7.8 67.571,10.241 67.571,12.787C67.571,26.805 67.571,52.64 67.571,65.832Z" style="fill-rule:nonzero;"/>
        <path d="M112.589,60.072L112.589,48.972C110.483,49.161 108.203,49.422 105.75,49.755C103.297,50.086 101.436,50.474 100.166,50.917C98.608,51.454 97.417,52.237 96.595,53.265C95.772,54.293 95.361,55.645 95.361,57.321C95.361,58.428 95.448,59.329 95.621,60.025C95.794,60.721 96.227,61.385 96.919,62.018C97.583,62.65 98.377,63.117 99.3,63.417C100.224,63.717 101.667,63.868 103.629,63.868C105.187,63.868 106.767,63.52 108.369,62.824C109.97,62.128 111.377,61.211 112.589,60.072ZM112.589,68.389C111.752,69.087 110.714,69.928 109.473,70.911C108.232,71.895 107.063,72.672 105.966,73.243C104.437,74.005 102.85,74.568 101.205,74.933C99.56,75.298 97.756,75.48 95.794,75.48C91.177,75.48 87.31,73.909 84.193,70.768C81.076,67.627 79.518,63.614 79.518,58.728C79.518,54.825 80.312,51.637 81.899,49.162C83.486,46.687 85.737,44.736 88.652,43.308C91.537,41.88 95.116,40.865 99.387,40.262C103.658,39.66 108.088,39.215 112.676,38.93L112.676,38.644C112.676,35.694 111.579,33.655 109.386,32.529C107.193,31.402 103.961,30.839 99.69,30.839C97.121,30.839 94.38,31.339 91.465,32.338C88.551,33.338 86.458,34.107 85.189,34.647L83.76,34.647L83.76,27.758C83.76,24.161 86.32,21.073 89.855,20.407C90.465,20.295 91.11,20.179 91.79,20.06C95.498,19.409 99.214,19.084 102.936,19.084C111.796,19.084 118.195,20.583 122.134,23.582C126.073,26.58 128.043,31.283 128.043,37.692L128.043,74.052L118.251,74.052C115.124,74.052 112.589,71.517 112.589,68.39C112.589,68.389 112.589,68.389 112.589,68.389Z" style="fill-rule:nonzero;"/>
        <path d="M157.954,74.052L142.371,74.052L142.371,20.607L157.954,20.607L157.954,74.052ZM158.387,12.992L141.938,12.992L141.938,0L158.387,0L158.387,12.992Z" style="fill-rule:nonzero;"/>
        <path d="M221.499,66.899C221.499,68.796 220.746,70.615 219.404,71.957C218.063,73.299 216.243,74.052 214.346,74.052C210.215,74.052 205.829,74.052 205.829,74.052L205.829,47.544C205.829,45.386 205.728,43.237 205.526,41.095C205.324,38.954 204.978,37.375 204.488,36.36C203.91,35.186 203.066,34.329 201.955,33.79C200.844,33.251 199.293,32.981 197.302,32.981C195.888,32.981 194.452,33.235 192.995,33.742C191.538,34.25 189.958,35.059 188.255,36.169L188.255,74.052L180.551,74.052C176.199,74.052 172.672,70.525 172.672,66.173C172.672,51.309 172.672,20.607 172.672,20.607L182.355,20.607C183.92,20.607 185.42,21.229 186.527,22.335C187.633,23.442 188.255,24.942 188.255,26.507C188.255,26.508 188.255,26.508 188.255,26.508C191.025,24.129 193.687,22.305 196.241,21.035C198.795,19.766 201.631,19.132 204.747,19.132C209.999,19.132 214.104,20.813 217.062,24.176C220.02,27.54 221.499,32.568 221.499,39.263L221.499,66.899Z" style="fill-rule:nonzero;"/>
        <path d="M278.075,57.11C278.075,62.63 275.824,67.08 271.323,70.459C266.821,73.838 260.66,75.528 252.839,75.528C248.51,75.528 244.586,75.083 241.065,74.195C240.417,74.032 239.793,73.865 239.192,73.695C235.285,72.583 232.59,69.014 232.59,64.952C232.581,61.198 232.581,57.157 232.581,57.157L234.009,57.157C234.788,57.76 235.69,58.418 236.715,59.132C237.739,59.846 239.189,60.616 241.065,61.441C242.681,62.17 244.514,62.797 246.562,63.32C248.611,63.844 250.805,64.106 253.142,64.106C256.201,64.106 258.466,63.733 259.938,62.987C261.41,62.242 262.146,61.139 262.146,59.68C262.146,58.379 261.713,57.435 260.847,56.848C259.981,56.261 258.337,55.698 255.912,55.158C254.758,54.873 253.193,54.564 251.216,54.23C249.239,53.897 247.443,53.493 245.827,53.017C241.411,51.748 238.136,49.773 236,47.092C233.865,44.411 232.797,41.071 232.797,37.074C232.797,31.934 235.012,27.659 239.442,24.248C243.871,20.837 249.924,19.132 257.601,19.132C261.237,19.132 264.721,19.536 268.054,20.345C268.39,20.427 268.719,20.509 269.04,20.592C273.057,21.628 275.864,25.251 275.864,29.399C275.868,32.875 275.868,36.455 275.868,36.455L274.526,36.455C272.217,34.71 269.584,33.29 266.626,32.196C263.668,31.101 260.674,30.554 257.644,30.554C255.133,30.554 253.019,30.934 251.302,31.696C249.585,32.457 248.727,33.536 248.727,34.932C248.727,36.201 249.116,37.169 249.896,37.835C250.675,38.501 252.507,39.168 255.393,39.834C256.98,40.183 258.69,40.524 260.523,40.857C262.355,41.19 264.195,41.611 266.042,42.118C270.139,43.292 273.17,45.14 275.132,47.663C277.094,50.185 278.075,53.334 278.075,57.11Z" style="fill-rule:nonzero;"/>
        <path d="M319.501,68.555C319.501,71.642 317.232,74.259 314.177,74.697C314.177,74.696 314.177,74.696 314.177,74.696C312.301,74.965 310.007,75.099 307.294,75.099C301.234,75.099 296.725,73.751 293.767,71.054C290.809,68.357 289.33,63.741 289.33,57.205L289.33,32.219L282.924,32.219L282.924,20.607L289.33,20.607L289.33,5.33L304.913,5.33L304.913,20.607L319.501,20.607L319.501,32.219L304.913,32.219L304.913,51.19C304.913,53.065 304.928,54.701 304.957,56.099C304.985,57.497 305.216,58.752 305.649,59.865C306.053,60.977 306.767,61.858 307.792,62.51C308.816,63.161 310.31,63.487 312.272,63.487C313.08,63.487 314.141,63.297 315.454,62.916C316.767,62.535 317.683,62.186 318.202,61.869L319.501,61.869L319.501,68.555Z" style="fill-rule:nonzero;"/>
        <path d="M358.243,60.072L358.243,48.972C356.136,49.161 353.856,49.422 351.403,49.755C348.951,50.086 347.089,50.474 345.819,50.917C344.261,51.454 343.071,52.237 342.248,53.265C341.426,54.293 341.015,55.645 341.015,57.321C341.015,58.428 341.101,59.329 341.274,60.025C341.447,60.721 341.88,61.385 342.573,62.018C343.237,62.65 344.03,63.117 344.954,63.417C345.877,63.717 347.32,63.868 349.282,63.868C350.841,63.868 352.421,63.52 354.022,62.824C355.624,62.128 357.031,61.211 358.243,60.072ZM358.243,68.389C357.406,69.087 356.367,69.928 355.126,70.911C353.885,71.895 352.716,72.672 351.62,73.243C350.09,74.005 348.503,74.568 346.858,74.933C345.213,75.298 343.41,75.48 341.447,75.48C336.83,75.48 332.963,73.909 329.847,70.768C326.73,67.627 325.172,63.614 325.172,58.728C325.172,54.825 325.965,51.637 327.552,49.162C329.14,46.687 331.39,44.736 334.305,43.308C337.191,41.88 340.769,40.865 345.04,40.262C349.311,39.66 353.741,39.215 358.329,38.93L358.329,38.644C358.329,35.694 357.233,33.655 355.04,32.529C352.846,31.402 349.614,30.839 345.343,30.839C342.775,30.839 340.033,31.339 337.119,32.338C334.204,33.338 332.112,34.107 330.842,34.647L329.414,34.647L329.414,29.62C329.414,24.906 332.8,20.874 337.443,20.06C337.443,20.06 337.443,20.06 337.443,20.06C341.152,19.409 344.867,19.084 348.59,19.084C357.449,19.084 363.848,20.583 367.788,23.582C371.727,26.58 373.696,31.283 373.696,37.692L373.696,74.052L363.905,74.052C360.778,74.052 358.243,71.517 358.243,68.39C358.243,68.389 358.243,68.389 358.243,68.389Z" style="fill-rule:nonzero;"/>
        <path d="M435.294,67.913C435.294,72.926 434.644,77.146 433.346,80.572C432.047,83.999 430.229,86.68 427.891,88.615C425.554,90.582 422.733,92.002 419.429,92.875C416.125,93.747 412.395,94.183 408.239,94.183C404.863,94.183 401.537,93.961 398.262,93.517C398.032,93.486 397.804,93.454 397.578,93.422C393.091,92.786 389.757,88.945 389.757,84.413C389.756,81.357 389.756,78.526 389.756,78.526L391.66,78.526C393.565,79.351 395.888,80.104 398.63,80.786C401.371,81.469 403.824,81.81 405.988,81.81C408.874,81.81 411.219,81.516 413.022,80.929C414.826,80.342 416.204,79.509 417.156,78.431C418.051,77.415 418.7,76.115 419.104,74.528C419.508,72.942 419.71,71.038 419.71,68.817L419.71,67.818C417.834,69.499 415.757,70.832 413.477,71.815C411.197,72.799 408.658,73.291 405.858,73.291C399.048,73.291 393.796,71.038 390.102,66.533C386.408,62.027 384.561,55.174 384.561,45.973C384.561,41.563 385.124,37.756 386.249,34.551C387.375,31.347 388.962,28.555 391.011,26.175C392.916,23.954 395.26,22.225 398.045,20.988C400.83,19.75 403.68,19.132 406.594,19.132C409.22,19.132 411.608,19.473 413.758,20.155C415.908,20.837 417.863,21.781 419.624,22.987C419.624,22.987 419.668,22.8 419.731,22.532C419.998,21.404 421.005,20.607 422.164,20.607C423.925,20.607 426.599,20.607 429.074,20.607C430.724,20.607 432.306,21.262 433.472,22.429C434.638,23.595 435.294,25.177 435.294,26.826C435.294,39.665 435.294,67.913 435.294,67.913ZM419.71,57.205L419.71,32.981C418.816,32.568 417.719,32.243 416.42,32.005C415.122,31.767 413.953,31.648 412.914,31.648C408.816,31.648 405.743,32.941 403.694,35.527C401.645,38.113 400.621,41.722 400.621,46.354C400.621,51.494 401.494,55.079 403.24,57.11C404.985,59.14 407.575,60.156 411.01,60.156C412.568,60.156 414.097,59.886 415.598,59.347C417.099,58.807 418.469,58.093 419.71,57.205Z" style="fill-rule:nonzero;"/>
        <path d="M497.886,44.498C497.886,46.089 497.255,47.614 496.13,48.738C495.006,49.863 493.481,50.495 491.89,50.495C481.729,50.495 462.218,50.495 462.218,50.495C462.449,54.683 463.899,57.887 466.568,60.108C469.238,62.329 473.17,63.439 478.364,63.439C481.654,63.439 484.843,62.789 487.93,61.488C491.018,60.187 493.457,58.791 495.246,57.3L496.977,57.3L496.977,62.001C496.978,67.964 492.841,73.13 487.022,74.433C487.022,74.433 487.022,74.433 487.021,74.433C483.905,75.131 480.456,75.48 476.676,75.48C466.922,75.48 459.448,73.069 454.253,68.246C449.059,63.424 446.462,56.554 446.462,47.639C446.462,38.819 448.922,31.831 453.842,26.675C458.762,21.519 465.508,18.941 474.079,18.941C481.986,18.941 487.93,21.139 491.913,25.533C495.895,29.927 497.886,36.249 497.886,44.498L497.886,44.498ZM482.39,40.453C482.303,36.867 481.495,34.171 479.966,32.362C478.436,30.554 476.055,29.649 472.823,29.649C469.822,29.649 467.355,30.506 465.421,32.219C463.488,33.933 462.406,36.677 462.175,40.453L482.39,40.453Z" style="fill-rule:nonzero;"/>
    </g>
</svg>
