<?xml version="1.0" encoding="UTF-8" standalone="no"?>
<!DOCTYPE svg PUBLIC "-//W3C//DTD SVG 1.1//EN" "http://www.w3.org/Graphics/SVG/1.1/DTD/svg11.dtd">
<svg width="100%" height="100%" viewBox="0 0 710 710" version="1.1" xmlns="http://www.w3.org/2000/svg" xmlns:xlink="http://www.w3.org/1999/xlink" xml:space="preserve" xmlns:serif="http://www.serif.com/" style="fill-rule:evenodd;clip-rule:evenodd;stroke-linejoin:round;stroke-miterlimit:2;">
    <path d="M350,40C487.979,40 600,152.021 600,290C600,427.979 487.979,540 350,540C212.021,540 100,427.979 100,290C100,152.021 212.021,40 350,40ZM173,258L174,412L173.993,412.127C173.786,416.058 175.677,419.804 178.961,421.974C182.246,424.143 186.434,424.411 189.969,422.678L330,354L373,353L507.443,421.506C511.76,423.706 516.946,423.295 520.863,420.445C524.78,417.594 526.766,412.785 526,408.001L527,258L524.828,245.786C509.333,158.633 432.084,96.155 343.618,99.225C255.151,102.294 182.419,169.976 173.001,257.993L173,258ZM203,260L203.001,259.995C211.983,186.232 274.084,130.451 348.385,129.408C422.685,128.365 486.328,182.38 497.378,255.862L498,260L498,386L463,366L463,260L462.463,257.131C452.267,202.697 404.403,163.479 349.026,164.186C293.65,164.893 246.803,205.32 238,259.998L238,260L238,368L202,386L203,260ZM266,266L266.001,265.988C270.985,224.34 305.83,192.691 347.763,191.726C389.697,190.76 425.962,220.77 432.857,262.144L434,269L434,353L398,335L398,277L397.663,274.759C394.05,250.736 373.133,233.151 348.846,233.718C324.56,234.286 304.487,252.829 302.001,276.994L302,277L302,337L266,354L266,266ZM330,326L330,280L330.001,279.99C331.005,269.697 339.658,261.847 350,261.847C360.342,261.847 368.995,269.697 369.999,279.99L370,280L370,326L330,326Z"/>
    <g>
        <path d="M169.684,635.832C169.684,640.372 166.004,644.052 161.465,644.052C157.315,644.052 153.149,644.052 153.149,644.052L153.149,596.604C153.149,596.604 146.704,613.215 143.281,622.036C142.028,625.267 138.918,627.395 135.453,627.395C135.372,627.395 135.29,627.395 135.209,627.395C131.907,627.395 128.943,625.367 127.749,622.288C124.353,613.536 117.783,596.604 117.783,596.604L117.783,644.052L109.666,644.052C107.663,644.052 105.742,643.257 104.326,641.84C102.909,640.424 102.114,638.503 102.114,636.499C102.114,622.929 102.114,594.563 102.114,580.887C102.114,576.635 105.56,573.189 109.812,573.189L121.419,573.189L135.921,608.739L150.378,573.189L160.086,573.189C162.632,573.189 165.073,574.2 166.873,576C168.673,577.8 169.684,580.241 169.684,582.787C169.684,596.805 169.684,622.64 169.684,635.832Z" style="fill-rule:nonzero;"/>
        <path d="M214.703,630.072L214.703,618.972C212.596,619.161 210.316,619.422 207.864,619.755C205.411,620.086 203.549,620.474 202.28,620.917C200.721,621.454 199.531,622.237 198.708,623.265C197.886,624.293 197.475,625.645 197.475,627.321C197.475,628.428 197.561,629.329 197.734,630.025C197.908,630.721 198.34,631.385 199.033,632.018C199.697,632.65 200.49,633.117 201.414,633.417C202.337,633.717 203.78,633.868 205.742,633.868C207.301,633.868 208.881,633.52 210.482,632.824C212.084,632.128 213.491,631.211 214.703,630.072ZM214.703,638.389C213.866,639.087 212.827,639.928 211.586,640.911C210.345,641.895 209.177,642.672 208.08,643.243C206.55,644.005 204.963,644.568 203.318,644.933C201.673,645.298 199.87,645.48 197.908,645.48C193.29,645.48 189.423,643.909 186.307,640.768C183.19,637.627 181.632,633.614 181.632,628.728C181.632,624.825 182.425,621.637 184.012,619.162C185.6,616.687 187.851,614.736 190.765,613.308C193.651,611.88 197.229,610.865 201.5,610.262C205.771,609.66 210.201,609.215 214.789,608.93L214.789,608.644C214.789,605.694 213.693,603.655 211.5,602.529C209.306,601.402 206.074,600.839 201.803,600.839C199.235,600.839 196.493,601.339 193.579,602.338C190.664,603.338 188.572,604.107 187.302,604.647L185.874,604.647L185.874,597.758C185.874,594.161 188.434,591.073 191.968,590.407C192.579,590.295 193.224,590.179 193.903,590.06C197.612,589.409 201.327,589.084 205.05,589.084C213.909,589.084 220.309,590.583 224.248,593.582C228.187,596.58 230.156,601.283 230.156,607.692L230.156,644.052L220.365,644.052C217.238,644.052 214.703,641.517 214.703,638.39C214.703,638.389 214.703,638.389 214.703,638.389Z" style="fill-rule:nonzero;"/>
        <path d="M260.068,644.052L244.484,644.052L244.484,590.607L260.068,590.607L260.068,644.052ZM260.5,582.992L244.051,582.992L244.051,570L260.5,570L260.5,582.992Z" style="fill-rule:nonzero;"/>
        <path d="M323.613,636.899C323.613,638.796 322.859,640.615 321.518,641.957C320.176,643.299 318.356,644.052 316.459,644.052C312.328,644.052 307.943,644.052 307.943,644.052L307.943,617.544C307.943,615.386 307.842,613.237 307.64,611.095C307.438,608.954 307.092,607.375 306.601,606.36C306.024,605.186 305.18,604.329 304.069,603.79C302.958,603.251 301.407,602.981 299.415,602.981C298.001,602.981 296.566,603.235 295.108,603.742C293.651,604.25 292.071,605.059 290.368,606.169L290.368,644.052L282.665,644.052C278.313,644.052 274.785,640.525 274.785,636.173C274.785,621.309 274.785,590.607 274.785,590.607L284.468,590.607C286.033,590.607 287.534,591.229 288.64,592.335C289.747,593.442 290.368,594.942 290.368,596.507C290.368,596.508 290.368,596.508 290.368,596.508C293.139,594.129 295.801,592.305 298.355,591.035C300.909,589.766 303.744,589.132 306.861,589.132C312.113,589.132 316.218,590.813 319.176,594.176C322.134,597.54 323.613,602.568 323.613,609.263L323.613,636.899Z" style="fill-rule:nonzero;"/>
        <path d="M380.189,627.11C380.189,632.63 377.938,637.08 373.436,640.459C368.934,643.838 362.773,645.528 354.953,645.528C350.624,645.528 346.699,645.083 343.179,644.195C342.531,644.032 341.906,643.865 341.305,643.695C337.398,642.583 334.704,639.014 334.704,634.952C334.694,631.198 334.694,627.157 334.694,627.157L336.123,627.157C336.902,627.76 337.804,628.418 338.828,629.132C339.853,629.846 341.303,630.616 343.179,631.441C344.795,632.17 346.627,632.797 348.676,633.32C350.725,633.844 352.918,634.106 355.256,634.106C358.315,634.106 360.58,633.733 362.052,632.987C363.523,632.242 364.259,631.139 364.259,629.68C364.259,628.379 363.826,627.435 362.961,626.848C362.095,626.261 360.45,625.698 358.026,625.158C356.872,624.873 355.306,624.564 353.329,624.23C351.353,623.897 349.556,623.493 347.94,623.017C343.525,621.748 340.249,619.773 338.114,617.092C335.978,614.411 334.911,611.071 334.911,607.074C334.911,601.934 337.126,597.659 341.555,594.248C345.985,590.837 352.038,589.132 359.714,589.132C363.35,589.132 366.835,589.536 370.168,590.345C370.504,590.427 370.833,590.509 371.154,590.592C375.171,591.628 377.977,595.251 377.977,599.399C377.981,602.875 377.981,606.455 377.981,606.455L376.639,606.455C374.331,604.71 371.697,603.29 368.739,602.196C365.782,601.101 362.788,600.554 359.757,600.554C357.247,600.554 355.133,600.934 353.416,601.696C351.699,602.457 350.84,603.536 350.84,604.932C350.84,606.201 351.23,607.169 352.009,607.835C352.788,608.501 354.621,609.168 357.507,609.834C359.094,610.183 360.804,610.524 362.636,610.857C364.468,611.19 366.308,611.611 368.155,612.118C372.253,613.292 375.283,615.14 377.245,617.663C379.208,620.185 380.189,623.334 380.189,627.11Z" style="fill-rule:nonzero;"/>
        <path d="M421.614,638.555C421.615,641.642 419.346,644.259 416.29,644.697C416.29,644.696 416.29,644.696 416.29,644.696C414.414,644.965 412.12,645.099 409.408,645.099C403.347,645.099 398.838,643.751 395.88,641.054C392.922,638.357 391.443,633.741 391.443,627.205L391.443,602.219L385.037,602.219L385.037,590.607L391.443,590.607L391.443,575.33L407.027,575.33L407.027,590.607L421.614,590.607L421.614,602.219L407.027,602.219L407.027,621.19C407.027,623.065 407.041,624.701 407.07,626.099C407.099,627.497 407.33,628.752 407.763,629.865C408.167,630.977 408.881,631.858 409.905,632.51C410.93,633.161 412.423,633.487 414.386,633.487C415.194,633.487 416.254,633.297 417.567,632.916C418.88,632.535 419.796,632.186 420.316,631.869L421.614,631.869L421.614,638.555Z" style="fill-rule:nonzero;"/>
        <path d="M460.356,630.072L460.356,618.972C458.25,619.161 455.97,619.422 453.517,619.755C451.064,620.086 449.203,620.474 447.933,620.917C446.375,621.454 445.184,622.237 444.362,623.265C443.539,624.293 443.128,625.645 443.128,627.321C443.128,628.428 443.215,629.329 443.388,630.025C443.561,630.721 443.994,631.385 444.686,632.018C445.35,632.65 446.144,633.117 447.067,633.417C447.991,633.717 449.434,633.868 451.396,633.868C452.954,633.868 454.534,633.52 456.136,632.824C457.737,632.128 459.144,631.211 460.356,630.072ZM460.356,638.389C459.519,639.087 458.481,639.928 457.24,640.911C455.999,641.895 454.83,642.672 453.733,643.243C452.204,644.005 450.617,644.568 448.972,644.933C447.327,645.298 445.523,645.48 443.561,645.48C438.944,645.48 435.077,643.909 431.96,640.768C428.843,637.627 427.285,633.614 427.285,628.728C427.285,624.825 428.079,621.637 429.666,619.162C431.253,616.687 433.504,614.736 436.419,613.308C439.304,611.88 442.883,610.865 447.154,610.262C451.425,609.66 455.854,609.215 460.443,608.93L460.443,608.644C460.443,605.694 459.346,603.655 457.153,602.529C454.96,601.402 451.728,600.839 447.457,600.839C444.888,600.839 442.147,601.339 439.232,602.338C436.318,603.338 434.225,604.107 432.956,604.647L431.527,604.647L431.527,599.62C431.527,594.906 434.914,590.874 439.556,590.06C439.557,590.06 439.557,590.06 439.557,590.06C443.265,589.409 446.981,589.084 450.703,589.084C459.563,589.084 465.962,590.583 469.901,593.582C473.84,596.58 475.81,601.283 475.81,607.692L475.81,644.052L466.018,644.052C462.891,644.052 460.356,641.517 460.356,638.39C460.356,638.389 460.356,638.389 460.356,638.389Z" style="fill-rule:nonzero;"/>
        <path d="M537.407,637.913C537.407,642.926 536.758,647.146 535.459,650.572C534.161,653.999 532.342,656.68 530.005,658.615C527.668,660.582 524.847,662.002 521.542,662.875C518.238,663.747 514.508,664.183 510.353,664.183C506.976,664.183 503.65,663.961 500.375,663.517C500.145,663.486 499.917,663.454 499.691,663.422C495.205,662.786 491.87,658.945 491.87,654.413C491.869,651.357 491.869,648.526 491.869,648.526L493.774,648.526C495.678,649.351 498.002,650.104 500.743,650.786C503.485,651.469 505.937,651.81 508.102,651.81C510.988,651.81 513.332,651.516 515.136,650.929C516.94,650.342 518.318,649.509 519.27,648.431C520.164,647.415 520.814,646.115 521.218,644.528C521.622,642.942 521.824,641.038 521.824,638.817L521.824,637.818C519.948,639.499 517.87,640.832 515.59,641.815C513.311,642.799 510.771,643.291 507.972,643.291C501.161,643.291 495.909,641.038 492.215,636.533C488.522,632.027 486.675,625.174 486.675,615.973C486.675,611.563 487.237,607.756 488.363,604.551C489.488,601.347 491.076,598.555 493.125,596.175C495.029,593.954 497.374,592.225 500.159,590.988C502.943,589.75 505.793,589.132 508.708,589.132C511.334,589.132 513.722,589.473 515.872,590.155C518.022,590.837 519.977,591.781 521.737,592.987C521.737,592.987 521.781,592.8 521.845,592.532C522.112,591.404 523.119,590.607 524.278,590.607C526.039,590.607 528.712,590.607 531.188,590.607C532.837,590.607 534.419,591.262 535.586,592.429C536.752,593.595 537.407,595.177 537.407,596.826C537.407,609.665 537.407,637.913 537.407,637.913ZM521.824,627.205L521.824,602.981C520.929,602.568 519.833,602.243 518.534,602.005C517.235,601.767 516.067,601.648 515.028,601.648C510.93,601.648 507.857,602.941 505.808,605.527C503.759,608.113 502.734,611.722 502.734,616.354C502.734,621.494 503.607,625.079 505.353,627.11C507.099,629.14 509.689,630.156 513.123,630.156C514.681,630.156 516.211,629.886 517.712,629.347C519.212,628.807 520.583,628.093 521.824,627.205Z" style="fill-rule:nonzero;"/>
        <path d="M600,614.498C600,616.089 599.368,617.614 598.244,618.738C597.119,619.863 595.594,620.495 594.004,620.495C583.843,620.495 564.332,620.495 564.332,620.495C564.562,624.683 566.013,627.887 568.682,630.108C571.351,632.329 575.283,633.439 580.478,633.439C583.767,633.439 586.956,632.789 590.044,631.488C593.132,630.187 595.57,628.791 597.359,627.3L599.091,627.3L599.091,632.001C599.091,637.964 594.955,643.13 589.135,644.433C589.135,644.433 589.135,644.433 589.135,644.433C586.018,645.131 582.57,645.48 578.789,645.48C569.035,645.48 561.561,643.069 556.367,638.246C551.172,633.424 548.575,626.554 548.575,617.639C548.575,608.819 551.035,601.831 555.956,596.675C560.876,591.519 567.621,588.941 576.192,588.941C584.099,588.941 590.044,591.139 594.026,595.533C598.009,599.927 600,606.249 600,614.498L600,614.498ZM584.503,610.453C584.417,606.867 583.609,604.171 582.079,602.362C580.55,600.554 578.169,599.649 574.937,599.649C571.936,599.649 569.468,600.506 567.535,602.219C565.601,603.933 564.519,606.677 564.288,610.453L584.503,610.453Z" style="fill-rule:nonzero;"/>
    </g>
</svg>
