<?xml version="1.0" encoding="UTF-8" standalone="no"?>
<!DOCTYPE svg PUBLIC "-//W3C//DTD SVG 1.1//EN" "http://www.w3.org/Graphics/SVG/1.1/DTD/svg11.dtd">
<svg width="100%" height="100%" viewBox="0 0 500 500" version="1.1" xmlns="http://www.w3.org/2000/svg" xmlns:xlink="http://www.w3.org/1999/xlink" xml:space="preserve" xmlns:serif="http://www.serif.com/" style="fill-rule:evenodd;clip-rule:evenodd;stroke-linejoin:round;stroke-miterlimit:2;">
    <path d="M250,0C387.979,0 500,112.021 500,250C500,387.979 387.979,500 250,500C112.021,500 0,387.979 0,250C0,112.021 112.021,0 250,0ZM73,218L74,372L73.993,372.127C73.786,376.058 75.677,379.804 78.961,381.974C82.246,384.143 86.434,384.411 89.969,382.678L230,314L273,313L407.443,381.506C411.76,383.706 416.946,383.295 420.863,380.445C424.78,377.594 426.766,372.785 426,368.001L427,218L424.828,205.786C409.333,118.633 332.084,56.155 243.618,59.225C155.151,62.294 82.419,129.976 73.001,217.993L73,218ZM103,220L103.001,219.995C111.983,146.232 174.084,90.451 248.385,89.408C322.685,88.365 386.328,142.38 397.378,215.862L398,220L398,346L363,326L363,220L362.463,217.131C352.267,162.697 304.403,123.479 249.026,124.186C193.65,124.893 146.803,165.32 138,219.998L138,220L138,328L102,346L103,220ZM166,226L166.001,225.988C170.985,184.34 205.83,152.691 247.763,151.726C289.697,150.76 325.962,180.77 332.857,222.144L334,229L334,313L298,295L298,237L297.663,234.759C294.05,210.736 273.133,193.151 248.846,193.718C224.56,194.286 204.487,212.829 202.001,236.994L202,237L202,297L166,314L166,226ZM230,286L230,240L230.001,239.99C231.005,229.697 239.658,221.847 250,221.847C260.342,221.847 268.995,229.697 269.999,239.99L270,240L270,286L230,286Z"/>
</svg>
